<svg xmlns="http://www.w3.org/2000/svg" viewBox="0 0 100 86.6">
  <!-- Fondo de pradera -->
  <polygon points="25,0 75,0 100,43.3 75,86.6 25,86.6 0,43.3" fill="#7CB342"/>
  <!-- Detalle low-poly: ondulaciones de hierba -->
  <polygon points="25,0 75,0 80,15 50,25 20,15" fill="#8BC34A"/>
  <polygon points="0,43.3 25,86.6 25,60 10,50" fill="#689F38"/>
  <polygon points="100,43.3 75,86.6 75,60 90,50" fill="#689F38"/>
  <polygon points="50,25 80,15 90,50 75,60 50,50 25,60 10,50 20,15" fill="#8BC34A"/>
  <!-- Puntos de flor silvestre -->
  <circle cx="35" cy="35" r="3" fill="#FDD835"/>
  <circle cx="65" cy="55" r="3" fill="#FDD835"/>
  <circle cx="50" cy="70" r="2.5" fill="#FDD835"/>
  <!-- Stroke del hexágono -->
  <polygon points="25,0 75,0 100,43.3 75,86.6 25,86.6 0,43.3"
           fill="none" stroke="#263238" stroke-width="2" stroke-linejoin="round"/>
</svg>